<mxfile host="app.diagrams.net" modified="2022-02-26T03:12:32.281Z" agent="5.0 (Macintosh; Intel Mac OS X 10_15_7) AppleWebKit/537.36 (KHTML, like Gecko) Chrome/98.0.4758.109 Safari/537.36" etag="k8CWK4x2oKWbXHl_c57i" version="16.6.4" type="github" pages="2">
  <diagram id="QvBSyUpBGjAhoO3pgZVX" name="Page-1">
    <mxGraphModel dx="923" dy="696" grid="1" gridSize="10" guides="1" tooltips="1" connect="1" arrows="1" fold="1" page="1" pageScale="1" pageWidth="827" pageHeight="1169" math="0" shadow="0">
      <root>
        <mxCell id="0" />
        <mxCell id="1" parent="0" />
        <mxCell id="FnJiNFCdWYFVAT-VuP6k-2" style="edgeStyle=orthogonalEdgeStyle;rounded=0;orthogonalLoop=1;jettySize=auto;html=1;entryX=0;entryY=0.5;entryDx=0;entryDy=0;" parent="1" source="g-33PEAelD1G8-IPkr1b-1" target="FnJiNFCdWYFVAT-VuP6k-1" edge="1">
          <mxGeometry relative="1" as="geometry" />
        </mxCell>
        <mxCell id="g-33PEAelD1G8-IPkr1b-1" value="" style="rounded=0;whiteSpace=wrap;html=1;" parent="1" vertex="1">
          <mxGeometry x="160" y="130" width="120" height="60" as="geometry" />
        </mxCell>
        <mxCell id="FnJiNFCdWYFVAT-VuP6k-1" value="" style="ellipse;whiteSpace=wrap;html=1;aspect=fixed;" parent="1" vertex="1">
          <mxGeometry x="380" y="120" width="80" height="80" as="geometry" />
        </mxCell>
      </root>
    </mxGraphModel>
  </diagram>
  <diagram id="Hz0FGNC7tXJTQxcZjTDV" name="Page-2">
    <mxGraphModel dx="923" dy="696" grid="1" gridSize="10" guides="1" tooltips="1" connect="1" arrows="1" fold="1" page="1" pageScale="1" pageWidth="827" pageHeight="1169" math="0" shadow="0">
      <root>
        <mxCell id="7rZm9w_cu8_PBUjoBXe1-0" />
        <mxCell id="7rZm9w_cu8_PBUjoBXe1-1" parent="7rZm9w_cu8_PBUjoBXe1-0" />
        <mxCell id="7rZm9w_cu8_PBUjoBXe1-2" value="" style="ellipse;whiteSpace=wrap;html=1;aspect=fixed;" vertex="1" parent="7rZm9w_cu8_PBUjoBXe1-1">
          <mxGeometry x="290" y="310" width="80" height="80" as="geometry" />
        </mxCell>
      </root>
    </mxGraphModel>
  </diagram>
</mxfile>
